<?xml version="1.0" standalone="no"?><!DOCTYPE svg PUBLIC "-//W3C//DTD SVG 1.1//EN" "http://www.w3.org/Graphics/SVG/1.1/DTD/svg11.dtd"><svg t="1736581030604" class="icon" viewBox="0 0 1049 1024" version="1.1" xmlns="http://www.w3.org/2000/svg" p-id="10355" xmlns:xlink="http://www.w3.org/1999/xlink" width="204.8828125" height="200"><path d="M523.705612 1024L0 514.892655H1049.06968z" fill="#414B67" p-id="10356"></path><path d="M524.669831 1024L250.696798 516.821092h547.676083zM237.19774 269.981168h568.888889l242.983051 244.911487H0z" fill="#2A303A" p-id="10357"></path><path d="M524.399849 269.981168L798.372881 514.892655H250.696798z" fill="#414B67" opacity=".8" p-id="10358"></path><path d="M524.669831 514.892655L250.696798 269.981168h547.676083z" fill="#414B67" opacity=".7" p-id="10359"></path><path d="M235.269303 483.073446l29.890772-58.817325h177.416196L539.962335 669.167608l167.774012-238.161958h105.099811v46.282486h-65.566855L467.645951 871.653484 318.19209 482.109228z" fill="#DFAA2C" p-id="10360"></path><path d="M524.53484 0V209.601808L420.399247 144.11209l97.548052-81.046418c-14.492203-2.938938-25.403299-15.799684-25.403299-31.219465 0-17.587345 14.199081-31.848136 31.713145-31.848135H524.53484z" fill="#B99E3D" p-id="10361"></path><path d="M524.53484 0V209.601808l104.135593-65.485861-97.548053-81.046418c14.492203-2.938938 25.403299-15.799684 25.4033-31.219465 0-17.587345-14.199081-31.848136-31.713145-31.848136H524.53484z" fill="#927326" p-id="10362"></path><path d="M524.53484 239.126177c-93.64104 0-154.138034 3.214704-181.489055 9.642185l-55.693258-173.781093a35.589303 35.589303 0 0 1-12.529054 2.263985c-19.714411 0-35.697296-15.998313-35.697296-35.733936C239.126177 21.783623 255.109062 5.785311 274.823473 5.785311c19.714411 0 35.697296 15.998313 35.697295 35.733936 0 8.384844-2.884942 16.094734-7.715676 22.190523L524.53484 206.284896V239.126177z" fill="#E0C04E" p-id="10363"></path><path d="M524.53484 239.126177c93.64104 0 154.138034 3.214704 181.489055 9.642185l55.693258-173.781093a35.589303 35.589303 0 0 0 12.529054 2.263985c19.714411 0 35.697296-15.998313 35.697296-35.733936C809.943503 21.783623 793.960618 5.785311 774.246207 5.785311c-19.714411 0-35.697296 15.998313-35.697296 35.733936 0 8.384844 2.884942 16.094734 7.715677 22.190523L524.53484 206.284896V239.126177z" fill="#AD8B38" p-id="10364"></path></svg>